<?xml version="1.0" encoding="UTF-8" standalone="no"?>
<!DOCTYPE svg PUBLIC "-//W3C//DTD SVG 1.1//EN" "http://www.w3.org/Graphics/SVG/1.1/DTD/svg11.dtd">
<svg width="100%" height="100%" viewBox="0 0 418 158" version="1.1" xmlns="http://www.w3.org/2000/svg" xmlns:xlink="http://www.w3.org/1999/xlink" xml:space="preserve" xmlns:serif="http://www.serif.com/" style="fill-rule:evenodd;clip-rule:evenodd;stroke-linejoin:round;stroke-miterlimit:2;">
    <g id="Background" transform="matrix(1,0,0,1,-26.557896,-23.011548)">
        <path d="M96.5,65.085C109.781,65.085 119.82,64.744 125.53,66.381C178.33,81.512 165.914,155.068 114.502,155.754C107.559,155.846 29.465,156.888 27.702,155.282C26.657,154.33 27.146,138.949 27.366,138.43C28.099,136.704 66.711,137.778 112.5,137.524C142.778,137.356 147.503,106.24 135.163,92.794C125.383,82.138 123.404,83.074 68.496,83.206C64.887,83.214 65.421,85.104 65.548,100.5C65.564,102.401 65.907,105.929 62.303,102.748C61.669,102.188 29.265,76.081 28.569,75.436C26.573,73.587 33.803,68.986 36.162,67.078C64.242,44.361 64.235,44.282 64.493,44.269C66.478,44.174 65.258,56.088 65.581,63.488C65.667,65.464 66.739,65.085 96.5,65.085Z" style="stroke:black;stroke-width:1px;"/>
        <path d="M409.417,23.913C419.101,27.312 418.825,28.096 435.807,45.196C456.184,65.715 432.104,83.399 422.767,92.766C402.491,113.106 387.947,93.974 373.651,79.351C353.212,58.444 379.326,40.193 387.038,32.041C396.932,21.581 404.04,23.507 409.417,23.913ZM404.526,38.869C399.716,39.958 398.778,41.931 386.403,54.404C376.6,64.284 382.59,66.78 398.795,83.205C405.613,90.115 409.204,85.618 426.171,68.186C433.398,60.762 421.399,52.142 420.631,51.37C411.124,41.804 410.075,39.297 404.526,38.869Z" style="stroke:black;stroke-width:1px;"/>
        <path d="M308.548,111.927C329.47,111.642 352.425,108.146 355.741,132.477C355.873,133.443 355.946,158.022 355.691,159.524C351.705,183.046 330.787,179.905 313.5,179.808C310.748,179.793 288.418,179.668 288.205,156.503C287.963,130.193 286.341,116.609 308.548,111.927ZM333.473,126.925C309.014,126.864 303.264,124.72 303.213,137.5C303.145,154.51 301.44,164.459 311.496,164.687C336.323,165.25 340.688,164.567 340.822,156.509C341.253,130.535 340.716,128.394 333.473,126.925Z" style="stroke:black;stroke-width:1px;"/>
        <path d="M337.579,95.903C304.271,98.987 297.988,92.801 295.573,90.424C289.998,84.936 287.423,83.299 288.225,50.491C288.45,41.31 295.52,28.545 311.499,28.393C338.928,28.132 355.782,26.368 355.841,56.5C355.872,71.974 358.778,90.72 337.579,95.903ZM340.835,66.5C340.835,53.887 341.57,48.702 338.354,45.654C336.394,43.796 336.149,43.349 312.5,43.542C301.325,43.633 303.167,51.76 303.213,69.5C303.248,83.168 308.736,81.31 327.5,81.248C339.589,81.208 340.666,78.632 340.835,66.5Z" style="stroke:black;stroke-width:1px;"/>
        <path d="M438.924,151.5C438.914,152.27 442.113,176.045 418.52,179.683C417.456,179.847 393.218,179.93 391.482,179.637C369.141,175.865 370.971,156.971 371.34,135.499C371.828,107.12 402.476,111.829 411.5,111.832C441.615,111.842 438.924,131.068 438.924,151.5ZM423.929,147.5C423.926,138.596 424.833,131.916 421.261,128.771C419.651,127.353 418.36,126.216 394.509,126.905C384.502,127.194 386.339,137.235 386.366,152.5C386.39,166.331 391.878,164.848 414.501,164.7C426.175,164.623 423.895,154.449 423.929,147.5Z" style="stroke:black;stroke-width:1px;"/>
        <path d="M247.281,61.375C242.03,70.648 182.217,176.273 180.567,176.674C179.89,176.839 167.967,172.122 169.879,168.696C171.641,165.539 237.996,50.056 243.923,39.741C246.806,34.723 248.26,37.108 253.229,39.966C256.884,42.067 258.173,42.544 256.023,46.228C255.318,47.436 250.074,56.422 247.281,61.375Z" style="stroke:black;stroke-width:1px;"/>
    </g>
</svg>
