<?xml version="1.0" encoding="UTF-8"?>
<!-- 2026-07-18 — Back chevron only (from back_options composite). Fill #000000 swapped to theme font color at runtime. -->
<svg viewBox="20 35 120 130" xmlns="http://www.w3.org/2000/svg">
  <path fill="#000000" d="M96.5,65.085C109.781,65.085 119.82,64.744 125.53,66.381C178.33,81.512 165.914,155.068 114.502,155.754C107.559,155.846 29.465,156.888 27.702,155.282C26.657,154.33 27.146,138.949 27.366,138.43C28.099,136.704 66.711,137.778 112.5,137.524C142.778,137.356 147.503,106.24 135.163,92.794C125.383,82.138 123.404,83.074 68.496,83.206C64.887,83.214 65.421,85.104 65.548,100.5C65.564,102.401 65.907,105.929 62.303,102.748C61.669,102.188 29.265,76.081 28.569,75.436C26.573,73.587 33.803,68.986 36.162,67.078C64.242,44.361 64.235,44.282 64.493,44.269C66.478,44.174 65.258,56.088 65.581,63.488C65.667,65.464 66.739,65.085 96.5,65.085Z"/>
</svg>
