<?xml version="1.0" encoding="UTF-8" standalone="no"?>
<!DOCTYPE svg PUBLIC "-//W3C//DTD SVG 1.1//EN" "http://www.w3.org/Graphics/SVG/1.1/DTD/svg11.dtd">
<svg width="100%" height="100%" viewBox="0 0 272 272" version="1.1" xmlns="http://www.w3.org/2000/svg" xmlns:xlink="http://www.w3.org/1999/xlink" xml:space="preserve" xmlns:serif="http://www.serif.com/" style="fill-rule:evenodd;clip-rule:evenodd;stroke-linejoin:round;stroke-miterlimit:2;">
    <g id="Background" transform="matrix(1,0,0,1,-5.456698,-2.406243)">
        <path d="M137.509,274.042C41.586,268.5 4.359,188.128 5.481,137.5C8.429,4.552 173.081,-44.863 249.967,56.135C315.311,141.971 258.332,274.981 137.509,274.042ZM46.043,132.476C45.866,161.28 48.698,189.859 99.445,184.011C104.654,183.411 134.749,179.943 129.063,125.549C128.778,122.825 129.235,82.258 77.472,89.283C50.544,92.938 47.052,112.741 46.043,132.476ZM167.074,148.5C167.206,143.171 166.264,140.743 171.517,141.392C175.209,141.848 199.446,182.857 203.507,183.44C204.022,183.514 222.449,183.535 222.501,183.503C225.051,181.951 222.692,181.543 220.915,179.195C218.19,175.596 188.249,136.054 187.912,133.431C187.596,130.962 222.104,92.267 221.956,90.375C221.841,88.902 221.115,89.281 203.51,89.659C202.527,89.68 202.031,89.357 189.877,104.793C173.923,125.053 173.657,127.537 168.441,126.742C166.707,126.477 167.492,125.519 167.073,92.503C167.038,89.695 166.347,89.646 163.5,89.634C156.636,89.606 149.798,88.851 149.468,91.496C149.433,91.777 149.443,181.307 149.463,181.504C149.595,182.789 149.873,184.183 165.493,183.459C167.414,183.37 167.074,182.229 167.074,148.5Z"/>
        <path d="M110.934,136.501C110.828,148.875 112.705,175.228 79.585,169.058C57.463,164.938 63.494,115.622 70.6,108.593C77.514,101.754 104.688,96.138 109.617,118.476C110.516,122.55 110.891,135.056 110.934,136.501Z"/>
    </g>
</svg>
