<?xml version="1.0" encoding="UTF-8" standalone="no"?>
<!DOCTYPE svg PUBLIC "-//W3C//DTD SVG 1.1//EN" "http://www.w3.org/Graphics/SVG/1.1/DTD/svg11.dtd">
<svg width="100%" height="100%" viewBox="0 0 458 166" version="1.1" xmlns="http://www.w3.org/2000/svg" xmlns:xlink="http://www.w3.org/1999/xlink" xml:space="preserve" xmlns:serif="http://www.serif.com/" style="fill-rule:evenodd;clip-rule:evenodd;stroke-linejoin:round;stroke-miterlimit:2;">
    <g id="Background" transform="matrix(1,0,0,1,-0.714882,-1.662287)">
        <path d="M334.966,65.5C335.317,45.136 334.529,24.4 335.483,23.483C336.763,22.253 445.91,22.972 455.512,23.035C457.662,23.049 457.948,23.318 457.965,25.488C458.038,35.09 458.875,144.212 457.517,145.517C456.732,146.272 336.189,146.251 335.483,145.517C334.893,144.903 334.966,144.743 334.966,65.5Z"/>
        <path d="M1.141,92.5L1.141,46.5C1.141,16.671 0.068,14.85 2.558,15.161C2.653,15.172 48.152,46.268 53.727,50.17C101.795,83.816 103.136,83.632 102.514,85.508C102.365,85.956 15.551,145.28 3.292,154.154C-0.706,157.048 1.141,151.789 1.141,92.5Z"/>
        <path d="M109.966,103.5C110.134,93.729 109.987,33.72 110.035,21.5C110.054,16.39 108.375,13.968 113.5,14.035C121.238,14.136 134.74,13.674 135.517,14.483C136.755,15.771 136.029,141.459 135.965,152.5C135.948,155.541 135.558,156.005 132.5,155.965C131.285,155.949 111.8,156.009 111.396,155.918C109.728,155.546 109.966,154.704 109.966,103.5Z"/>
        <path d="M181.034,125.5C181.034,154.239 181.619,155.944 178.512,155.965C157.048,156.106 156.812,156.794 155.483,155.517C154.749,154.811 154.728,15.268 155.483,14.483C156.26,13.674 169.762,14.136 177.5,14.035C182.625,13.968 180.946,16.39 180.965,21.5C181.006,32.118 180.876,120.917 181.034,125.5Z"/>
        <path d="M301.71,1.662C305.946,1.924 315.07,8.439 315.211,8.662C316.061,10.012 315.114,10.215 259.964,105.769C224.63,166.989 224.67,167.024 224.346,167.352C222.823,168.897 210.124,161.408 210.357,159.475C210.378,159.301 296.59,9.313 301.71,1.662Z"/>
    </g>
</svg>
