<?xml version="1.0" encoding="UTF-8" standalone="no"?>
<!DOCTYPE svg PUBLIC "-//W3C//DTD SVG 1.1//EN" "http://www.w3.org/Graphics/SVG/1.1/DTD/svg11.dtd">
<svg width="100%" height="100%" viewBox="0 0 271 142" version="1.1" xmlns="http://www.w3.org/2000/svg" xmlns:xlink="http://www.w3.org/1999/xlink" xml:space="preserve" xmlns:serif="http://www.serif.com/" style="fill-rule:evenodd;clip-rule:evenodd;stroke-linejoin:round;stroke-miterlimit:2;">
    <g id="Background" transform="matrix(1,0,0,1,-3.126088,-4.90172)">
        <path d="M269.284,143.881C266.101,142.092 151.753,75.076 151.857,75.019C153.964,73.876 155.617,73.038 155.762,72.955C199.402,48.193 199.05,47.667 242.688,22.824C271.729,6.291 272.361,4.682 273.494,6.503C273.578,6.638 273.54,6.656 273.54,11.5C273.539,144.821 273.584,144.91 273.235,145.254C272.302,146.174 269.853,144.202 269.284,143.881Z"/>
        <path d="M150.962,144.769C150.16,147.226 30.255,74.52 30.507,74.271C31.49,73.3 33.372,72.951 38.308,70.164C83.82,44.473 83.299,43.667 128.735,17.908C148.723,6.575 149.434,5.544 150.379,5.877C151.889,6.41 151.112,6.929 151.105,8.503C150.831,69.207 151.088,144.385 150.962,144.769Z"/>
        <path d="M28.735,40.5C28.735,70.045 29.033,144.523 28.447,145.471C27.837,146.457 27.523,146.325 8.5,146.317C4.757,146.316 3.147,147.224 3.126,143.506C3.126,143.471 3.126,7.544 3.127,7.491C3.201,4.267 5.035,4.966 14.5,4.966C27.202,4.966 28.697,4.403 28.735,7.495C28.736,7.559 28.735,13.636 28.735,40.5Z"/>
    </g>
</svg>
